<svg xmlns="http://www.w3.org/2000/svg" width="24" height="24" fill="none" viewBox="0 0 24 24" id="github"><rect width="24" height="24" fill="url(#paint0_linear_302_4642)" rx="8"></rect><path fill="#fff" d="M11.9972 4.00001C10.0986 3.99821 8.26146 4.67259 6.81492 5.90226C5.36836 7.13194 4.40699 8.83655 4.10306 10.7106C3.79913 12.5847 4.1725 14.5058 5.15628 16.1296C6.14007 17.7535 7.66995 18.9739 9.47178 19.5722C9.87057 19.6417 9.99702 19.4076 9.99702 19.1964C9.99702 19.0052 10.0012 18.4759 9.99702 17.8068C7.77381 18.289 7.31457 16.7543 7.31457 16.7543C7.168 16.2714 6.85356 15.8569 6.42807 15.5857C5.70275 15.0897 6.48226 15.0993 6.48226 15.0993C6.73551 15.1341 6.97745 15.2263 7.18961 15.3689C7.40177 15.5114 7.57855 15.7007 7.70641 15.922C7.81458 16.1191 7.96076 16.2927 8.13648 16.433C8.3122 16.5732 8.51399 16.6772 8.73017 16.7391C8.94635 16.8008 9.17263 16.8191 9.39593 16.7929C9.61921 16.7666 9.83509 16.6964 10.0311 16.5861C10.0679 16.1823 10.2478 15.8048 10.5382 15.5218C8.76452 15.3189 6.89911 14.6339 6.89911 11.5714C6.88785 10.7775 7.18267 10.0097 7.72239 9.42741C7.47783 8.73856 7.50567 7.98229 7.80021 7.31328C7.80021 7.31328 8.47204 7.09861 9.99702 8.13309C11.3068 7.77368 12.6891 7.77368 13.9988 8.13309C15.5273 7.0993 16.1935 7.31328 16.1935 7.31328C16.4881 7.9822 16.5165 8.73833 16.2727 9.42741C16.8126 10.0101 17.107 10.7785 17.0946 11.5728C17.0946 14.6436 15.2264 15.3183 13.4465 15.5148C13.6377 15.7069 13.7854 15.9378 13.8797 16.1919C13.974 16.446 14.0127 16.7174 13.9932 16.9877V19.1998C13.9932 19.4131 14.1225 19.6493 14.5282 19.5722C16.3305 18.9737 17.8607 17.7529 18.8444 16.1284C19.8281 14.5041 20.2012 12.5823 19.8965 10.7079C19.5919 8.83343 18.6295 7.12877 17.1819 5.89954C15.7343 4.67032 13.8963 3.99689 11.9972 4.00001Z"></path><defs><linearGradient id="paint0_linear_302_4642" x1="0" x2="24" y1="12" y2="12" gradientUnits="userSpaceOnUse"><stop stop-color="#ED6D6B"></stop><stop offset="1" stop-color="#F0B076"></stop></linearGradient></defs></svg>